<svg aria-hidden="true" style="position: absolute; width: 0; height: 0; overflow: hidden;" version="1.1" xmlns="http://www.w3.org/2000/svg" xmlns:xlink="http://www.w3.org/1999/xlink">
<defs>
<symbol id="icon-chevron-small-down" viewBox="0 0 20 20">
<title>chevron-small-down</title>
<path d="M13.418 7.859c0.271-0.268 0.709-0.268 0.978 0s0.272 0.701 0 0.969l-3.908 3.83c-0.27 0.268-0.707 0.268-0.979 0l-3.908-3.83c-0.27-0.267-0.27-0.701 0-0.969s0.709-0.268 0.978 0l3.421 3.141 3.418-3.141z"></path>
</symbol>
<symbol id="icon-chevron-small-left" viewBox="0 0 20 20">
<title>chevron-small-left</title>
<path d="M12.141 13.418c0.268 0.271 0.268 0.709 0 0.978s-0.701 0.272-0.969 0l-3.83-3.908c-0.268-0.27-0.268-0.707 0-0.979l3.83-3.908c0.267-0.27 0.701-0.27 0.969 0s0.268 0.709 0 0.978l-3.141 3.421 3.141 3.418z"></path>
</symbol>
<symbol id="icon-chevron-small-right" viewBox="0 0 20 20">
<title>chevron-small-right</title>
<path d="M11 10l-3.141-3.42c-0.268-0.27-0.268-0.707 0-0.978 0.268-0.27 0.701-0.27 0.969 0l3.83 3.908c0.268 0.271 0.268 0.709 0 0.979l-3.83 3.908c-0.267 0.272-0.701 0.27-0.969 0s-0.268-0.707 0-0.978l3.141-3.419z"></path>
</symbol>
<symbol id="icon-facebook" viewBox="0 0 32 32">
<title>facebook</title>
<path fill="#1877f2" style="fill: var(--color1, #1877f2)" d="M31.997 15.999c0-8.836-7.163-15.999-15.999-15.999s-15.999 7.163-15.999 15.999c0 7.985 5.851 14.604 13.499 15.804v-11.18h-4.062v-4.625h4.062v-3.525c0-4.010 2.389-6.225 6.043-6.225 1.75 0 3.581 0.313 3.581 0.313v3.937h-2.017c-1.987 0-2.607 1.233-2.607 2.498v3.001h4.437l-0.709 4.625h-3.728v11.18c7.649-1.2 13.499-7.819 13.499-15.804z"></path>
</symbol>
<symbol id="icon-linkedin" viewBox="0 0 32 32">
<title>linkedin</title>
<path fill="#0077b5" style="fill: var(--color2, #0077b5)" d="M27.263 27.269h-4.739v-7.425c0-1.771-0.036-4.049-2.469-4.049-2.471 0-2.848 1.927-2.848 3.919v7.556h-4.739v-15.269h4.552v2.081h0.061c0.636-1.2 2.183-2.467 4.493-2.467 4.801 0 5.689 3.16 5.689 7.273zM7.116 9.911c-1.525 0-2.751-1.235-2.751-2.753 0-1.517 1.227-2.751 2.751-2.751 1.52 0 2.752 1.233 2.752 2.751 0 1.519-1.233 2.753-2.752 2.753zM9.492 27.269h-4.752v-15.269h4.752zM29.633 0h-27.272c-1.305 0-2.361 1.032-2.361 2.305v27.389c0 1.275 1.056 2.305 2.361 2.305h27.268c1.304 0 2.371-1.031 2.371-2.305v-27.389c0-1.273-1.067-2.305-2.371-2.305z"></path>
</symbol>
<symbol id="icon-realm" viewBox="0 0 32 32">
<title>realm</title>
<path fill="#39477f" style="fill: var(--color3, #39477f)" d="M16.005 0.079c-4.413 0.016-8.406 1.797-11.313 4.675l0.001-0.001v0.003c-2.967 2.965-4.688 7.095-4.688 11.285 0 4.189 1.713 8.325 4.688 11.287l0.001 0.003c2.907 2.869 6.896 4.649 11.301 4.673l0.005 0h0.005c4.197 0 8.34-1.711 11.309-4.677l0.003-0.003c2.878-2.892 4.664-6.873 4.688-11.271l0-0.005v-0.005c0-4.188-1.716-8.324-4.691-11.287-2.904-2.877-6.897-4.66-11.306-4.676h-0.003zM16.005 1.86c0.64 0 1.28 0.061 1.913 0.151-2.707 0.755-5.020 2.163-7.405 2.599-0.505 0.092-1.086 0.145-1.679 0.145-0.454 0-0.901-0.031-1.338-0.091l0.051 0.006c2.435-1.784 5.445-2.809 8.459-2.809zM21.519 3.289c0.231 0 0.464 0.015 0.695 0.031 1.482 0.715 2.752 1.618 3.846 2.698l-0.002-0.002c0.123 0.121 0.231 0.259 0.349 0.385-1.717 0.923-3.745 1.495-5.899 1.57l-0.023 0.001c-3.24 0.080-6.611-1.059-10.253-1.097-0.034-0-0.073-0-0.113-0-2.045 0-4.006 0.364-5.82 1.030l0.117-0.038c0.427-0.609 0.896-1.191 1.416-1.724 1.631 0.429 3.333 0.52 4.997 0.219h0.003c3.019-0.549 5.511-2.167 8.065-2.773 0.769-0.19 1.652-0.299 2.561-0.299 0.022 0 0.043 0 0.065 0h-0.003zM27.565 7.828c0.775 1.082 1.422 2.329 1.88 3.663l0.030 0.102c-0.58-0.324-1.179-0.613-1.8-0.859h-0.001c-1.625-0.653-3.509-1.032-5.481-1.032-1.186 0-2.34 0.137-3.447 0.396l0.102-0.020h-0.004c-1.985 0.459-3.788 1.289-5.539 2.031-0.624 0.264-1.244 0.511-1.865 0.737-0.538-0.141-1.193-0.261-1.861-0.335l-0.065-0.006h-0.003c-0.353-0.035-0.764-0.055-1.179-0.055-1.584 0-3.101 0.288-4.501 0.816l0.088-0.029c-0.646-0.218-1.194-0.459-1.716-0.742l0.057 0.028c0.212-0.814 0.453-1.505 0.743-2.17l-0.036 0.094c2.228-1.169 4.736-1.819 7.244-1.792 3.26 0.035 6.656 1.187 10.317 1.096h0.005c2.592-0.079 5.003-0.783 7.11-1.964l-0.078 0.040zM22.191 11.484c1.644 0 3.284 0.305 4.833 0.909 1.162 0.468 2.166 1.042 3.077 1.732l-0.033-0.024c0.048 0.336 0.085 0.672 0.109 1.011-0.979-0.249-1.984-0.4-2.992-0.437-0.161-0.007-0.349-0.011-0.538-0.011-1.328 0-2.612 0.189-3.827 0.541l0.097-0.024c-0.929 0.264-1.804 0.617-2.652 1.012-1.449-0.495-2.888-1.147-4.369-1.781-0.276-0.136-0.859-0.377-1.447-0.608l-0.318-0.11c1.733-0.736 3.405-1.484 5.112-1.88 0.885-0.21 1.902-0.331 2.946-0.331 0.001 0 0.001 0 0.002 0h-0zM7.836 14.235c0.499-0.021 1-0.007 1.5 0.041 1.967 0.197 3.913 0.939 5.857 1.773 0.956 0.412 1.937 0.833 2.937 1.237-1.467 0.805-2.875 1.633-4.316 2.268-1.4-0.525-2.841-1.011-4.403-1.224-2.447-0.333-4.956 0.080-7.183 1.104-0.242-0.911-0.396-1.964-0.426-3.047l-0-0.019c0.537-0.4 1.104-0.76 1.707-1.053 1.263-0.622 2.742-1.013 4.304-1.079l0.022-0.001zM27.12 16.456c1.033 0.039 2.063 0.213 3.053 0.505-0.066 0.93-0.21 1.792-0.427 2.625l0.022-0.099c-0.893 0.584-1.844 1.076-2.852 1.44-2.437 0.876-5.133 1.053-7.667 0.497-1.040-0.227-2.076-0.6-3.121-1 2.519-1.297 4.797-2.825 7.276-3.528h0.003c0.972-0.285 2.089-0.449 3.244-0.449 0.165 0 0.329 0.003 0.493 0.010l-0.023-0.001zM7.344 20.008c0.611-0.021 1.221 0.007 1.825 0.088 3.139 0.429 6.156 2.291 9.7 3.068 0.476 0.104 0.956 0.179 1.437 0.237-0.467 0.133-0.931 0.28-1.391 0.443v0.003h-0.001c-1.711 0.616-3.273 1.389-4.849 1.851-2.868 0.833-5.924 0.72-8.724-0.307-1.058-1.204-1.925-2.608-2.534-4.143l-0.034-0.097c1.334-0.662 2.896-1.076 4.549-1.142l0.022-0.001zM28.869 22.008c-0.089 0.193-0.177 0.388-0.276 0.577-0.295-0.023-0.589-0.052-0.885-0.064 0.397-0.149 0.779-0.335 1.161-0.513zM26.603 24.279c0.308-0.001 0.619 0.009 0.928 0.021-0.444 0.62-0.928 1.216-1.473 1.765h-0.003v0.003c-2.621 2.617-6.339 4.151-10.047 4.151-2.872-0.018-5.541-0.874-7.779-2.334l0.055 0.034c2.093 0.252 4.231 0.087 6.28-0.509h0.004c1.776-0.521 3.368-1.316 4.947-1.885 2.108-0.776 4.543-1.231 7.082-1.245l0.006-0z"></path>
</symbol>
<symbol id="icon-rss" viewBox="0 0 32 32">
<title>rss</title>
<path fill="#ffa500" style="fill: var(--color4, #ffa500)" d="M25.599 32c0-14.044-11.555-25.6-25.599-25.6v-6.4c17.553 0 32 14.447 32 32zM4.388 23.22c2.419 0 4.391 1.972 4.391 4.393 0 2.417-1.98 4.387-4.401 4.387-2.417 0-4.377-1.965-4.377-4.387s1.967-4.392 4.388-4.393zM21.212 32h-6.22c0-8.225-6.767-14.993-14.992-14.993v-6.22c11.636 0 21.212 9.579 21.212 21.213z"></path>
</symbol>
<symbol id="icon-twitter" viewBox="0 0 32 32">
<title>twitter</title>
<path fill="#1da1f2" style="fill: var(--color5, #1da1f2)" d="M31.939 6.092c-1.18 0.519-2.44 0.872-3.767 1.033 1.352-0.815 2.392-2.099 2.884-3.631-1.268 0.74-2.673 1.279-4.169 1.579-1.195-1.279-2.897-2.079-4.788-2.079-3.623 0-6.56 2.937-6.56 6.556 0 0.52 0.060 1.020 0.169 1.499-5.453-0.257-10.287-2.876-13.521-6.835-0.569 0.963-0.888 2.081-0.888 3.3 0 2.28 1.16 4.284 2.917 5.461-1.076-0.035-2.088-0.331-2.971-0.821v0.081c0 3.18 2.257 5.832 5.261 6.436-0.551 0.148-1.132 0.228-1.728 0.228-0.419 0-0.82-0.040-1.221-0.115 0.841 2.604 3.26 4.503 6.139 4.556-2.24 1.759-5.079 2.807-8.136 2.807-0.52 0-1.039-0.031-1.56-0.089 2.919 1.859 6.357 2.945 10.076 2.945 12.072 0 18.665-9.995 18.665-18.648 0-0.279 0-0.56-0.020-0.84 1.281-0.919 2.4-2.080 3.28-3.397z"></path>
</symbol>
<symbol id="icon-video-camera" viewBox="0 0 18 18">
<title>video-camera</title>
<path d="M17.001 4c-0.116 0-0.235 0.022-0.352 0.071l-4.649 1.913v-1.983c0-0.552-0.448-1-1-1h-10c-0.552 0-1 0.448-1 1v10c0 0.552 0.448 1 1 1h10c0.552 0 1-0.448 1-1v-1.983l4.649 1.913c0.117 0.048 0.236 0.071 0.352 0.071 0.53 0 0.999-0.47 0.999-1.098v-7.804c0-0.628-0.469-1.098-0.999-1.098zM10 12.5c0 0.276-0.224 0.5-0.5 0.5h-7c-0.276 0-0.5-0.224-0.5-0.5v-7c0-0.276 0.224-0.5 0.5-0.5h7c0.276 0 0.5 0.224 0.5 0.5v7zM16 11.5l-4-1.646v-1.708l4-1.646v4.999z"></path>
</symbol>
<symbol id="icon-picture" viewBox="0 0 32 32">
<title>picture</title>
<path d="M20 12l-6 10-3.97-2.896-0.030-0.104-0.236-0.091 0.184 0.135-5.948 4.956v2h24v-2l-3-9-5-3zM9 13c1.656 0 3-1.343 3-3s-1.344-3-3-3-3 1.343-3 3 1.344 3 3 3zM31 2h-30c-0.552 0-1 0.448-1 1v26c0 0.553 0.448 1 1 1h30c0.553 0 1-0.447 1-1v-26c0-0.552-0.447-1-1-1zM30 27c0 0.553-0.447 1-1 1h-26c-0.552 0-1-0.447-1-1v-22c0-0.552 0.448-1 1-1h26c0.553 0 1 0.448 1 1v22z"></path>
</symbol>
<symbol id="icon-gift" viewBox="0 0 32 32">
<title>gift</title>
<path d="M29 10.005h-26c-0.553 0-1 0.447-1 1v9c0 0.553 0.447 1 1 1h1v10c0 0.553 0.447 1 1 1h22c0.553 0 1-0.447 1-1v-10h1c0.553 0 1-0.447 1-1v-9c0-0.553-0.447-1-1-1zM14 29.005c0 0.553-0.447 1-1 1h-6c-0.553 0-1-0.447-1-1v-8c0-0.553 0.447-1 1-1h6c0.553 0 1 0.447 1 1v8zM14 17.005c0 0.553-0.447 1-1 1h-8c-0.553 0-1-0.447-1-1v-4c0-0.553 0.447-1 1-1h8c0.553 0 1 0.447 1 1v4zM26 29.005c0 0.553-0.447 1-1 1h-6c-0.553 0-1-0.447-1-1v-8c0-0.553 0.447-1 1-1h6c0.553 0 1 0.447 1 1v8zM28 17.005c0 0.553-0.447 1-1 1h-8c-0.553 0-1-0.447-1-1v-4c0-0.553 0.447-1 1-1h8c0.553 0 1 0.447 1 1v4zM11.559 10.004h9.2c1.577-1.131 3.068-2.603 3.245-4.207 0.086-0.783-0.082-1.93-1.375-2.951-0.717-0.567-1.445-0.854-2.161-0.854-2.282 0-3.573 2.798-4.271 5.298-0.834-3.187-2.444-7.285-5.209-7.285-0.807 0-1.61 0.349-2.391 1.038-1.54 1.362-1.691 2.778-1.547 3.726 0.323 2.119 2.455 3.94 4.509 5.235zM20.468 4.392c0.221 0 0.506 0.132 0.823 0.384 0.516 0.406 0.487 0.658 0.479 0.741-0.096 0.875-1.737 2.25-3.651 3.385 0.563-2.421 1.483-4.51 2.349-4.51zM10.034 2.89c0.251-0.222 0.621-0.486 0.954-0.486 1.238 0 2.511 3.25 3.253 6.41-2.338-1.246-4.755-3.013-4.971-4.431-0.029-0.196-0.109-0.721 0.764-1.493z"></path>
</symbol>
<symbol id="icon-arrest" viewBox="0 0 32 32">
<title>arrest</title>
<path d="M26 4v24h-4v-24h4zM14 28h4v-24h-4v24zM6 28h4v-24h-4v24z"></path>
</symbol>
<symbol id="icon-stack" viewBox="0 0 32 32">
<title>stack</title>
<path d="M6 14h20v4h-20v-4zM6 26h20v-4h-20v4zM6 6v4h20v-4h-20z"></path>
</symbol>
<symbol id="icon-database" viewBox="0 0 32 32">
<title>database</title>
<path d="M16 0c-8.837 0-16 2.239-16 5v4c0 2.761 7.163 5 16 5s16-2.239 16-5v-4c0-2.761-7.163-5-16-5z"></path>
<path d="M16 17c-8.837 0-16-2.239-16-5v6c0 2.761 7.163 5 16 5s16-2.239 16-5v-6c0 2.761-7.163 5-16 5z"></path>
<path d="M16 26c-8.837 0-16-2.239-16-5v6c0 2.761 7.163 5 16 5s16-2.239 16-5v-6c0 2.761-7.163 5-16 5z"></path>
</symbol>
<symbol id="icon-lab" viewBox="0 0 32 32">
<title>lab</title>
<path d="M29.884 25.14l-9.884-16.47v-6.671h1c0.55 0 1-0.45 1-1s-0.45-1-1-1h-10c-0.55 0-1 0.45-1 1s0.45 1 1 1h1v6.671l-9.884 16.47c-2.264 3.773-0.516 6.86 3.884 6.86h20c4.4 0 6.148-3.087 3.884-6.86zM7.532 20l6.468-10.779v-7.221h4v7.221l6.468 10.779h-16.935z"></path>
</symbol>
<symbol id="icon-earth" viewBox="0 0 32 32">
<title>earth</title>
<path d="M16 0c-8.837 0-16 7.163-16 16s7.163 16 16 16 16-7.163 16-16-7.163-16-16-16zM16 30c-1.967 0-3.84-0.407-5.538-1.139l7.286-8.197c0.163-0.183 0.253-0.419 0.253-0.664v-3c0-0.552-0.448-1-1-1-3.531 0-7.256-3.671-7.293-3.707-0.188-0.188-0.442-0.293-0.707-0.293h-4c-0.552 0-1 0.448-1 1v6c0 0.379 0.214 0.725 0.553 0.894l3.447 1.724v5.871c-3.627-2.53-6-6.732-6-11.489 0-2.147 0.484-4.181 1.348-6h3.652c0.265 0 0.52-0.105 0.707-0.293l4-4c0.188-0.188 0.293-0.442 0.293-0.707v-2.419c1.268-0.377 2.61-0.581 4-0.581 2.2 0 4.281 0.508 6.134 1.412-0.13 0.109-0.256 0.224-0.376 0.345-1.133 1.133-1.757 2.64-1.757 4.243s0.624 3.109 1.757 4.243c1.139 1.139 2.663 1.758 4.239 1.758 0.099 0 0.198-0.002 0.297-0.007 0.432 1.619 1.211 5.833-0.263 11.635-0.014 0.055-0.022 0.109-0.026 0.163-2.541 2.596-6.084 4.208-10.004 4.208z"></path>
</symbol>
<symbol id="icon-facebook2" viewBox="0 0 32 32">
<title>facebook2</title>
<path d="M29 0h-26c-1.65 0-3 1.35-3 3v26c0 1.65 1.35 3 3 3h13v-14h-4v-4h4v-2c0-3.306 2.694-6 6-6h4v4h-4c-1.1 0-2 0.9-2 2v2h6l-1 4h-5v14h9c1.65 0 3-1.35 3-3v-26c0-1.65-1.35-3-3-3z"></path>
</symbol>
<symbol id="icon-coffee" viewBox="0 0 29 28">
<title>coffee</title>
<path d="M26 10c0-1.656-1.344-3-3-3h-1v6h1c1.656 0 3-1.344 3-3zM0 22h28c0 2.203-1.797 4-4 4h-20c-2.203 0-4-1.797-4-4zM29 10c0 3.313-2.688 6-6 6h-1v0.5c0 1.922-1.578 3.5-3.5 3.5h-11c-1.922 0-3.5-1.578-3.5-3.5v-11.5c0-0.547 0.453-1 1-1h18c3.313 0 6 2.688 6 6z"></path>
</symbol>
<symbol id="icon-videocam" viewBox="0 0 24 24">
<title>videocam</title>
<path d="M17.016 10.5l3.984-3.984v10.969l-3.984-3.984v3.516q0 0.422-0.305 0.703t-0.727 0.281h-12q-0.422 0-0.703-0.281t-0.281-0.703v-10.031q0-0.422 0.281-0.703t0.703-0.281h12q0.422 0 0.727 0.281t0.305 0.703v3.516z"></path>
</symbol>
<symbol id="icon-call" viewBox="0 0 24 24">
<title>call</title>
<path d="M20.016 15.375q0.422 0 0.703 0.281t0.281 0.703v3.469q0 1.172-0.984 1.172-6.984 0-12-5.016t-5.016-12q0-0.984 1.172-0.984h3.469q0.422 0 0.703 0.281t0.281 0.703q0 1.828 0.563 3.516 0.188 0.609-0.234 1.031l-1.922 1.688q2.156 4.5 6.891 6.797l1.547-1.969q0.281-0.281 0.703-0.281 0.234 0 0.328 0.047 1.688 0.563 3.516 0.563z"></path>
</symbol>
<symbol id="icon-emailmailmarkunreadlocal_post_office" viewBox="0 0 24 24">
<title>emailmailmarkunreadlocal_post_office</title>
<path d="M20.016 8.016v-2.016l-8.016 5.016-8.016-5.016v2.016l8.016 4.969zM20.016 3.984q0.797 0 1.383 0.609t0.586 1.406v12q0 0.797-0.586 1.406t-1.383 0.609h-16.031q-0.797 0-1.383-0.609t-0.586-1.406v-12q0-0.797 0.586-1.406t1.383-0.609h16.031z"></path>
</symbol>
<symbol id="icon-location_onplaceroom" viewBox="0 0 24 24">
<title>location_onplaceroom</title>
<path d="M12 11.484q1.031 0 1.758-0.727t0.727-1.758-0.727-1.758-1.758-0.727-1.758 0.727-0.727 1.758 0.727 1.758 1.758 0.727zM12 2.016q2.906 0 4.945 2.039t2.039 4.945q0 1.453-0.727 3.328t-1.758 3.516-2.039 3.070-1.711 2.273l-0.75 0.797q-0.281-0.328-0.75-0.867t-1.688-2.156-2.133-3.141-1.664-3.445-0.75-3.375q0-2.906 2.039-4.945t4.945-2.039z"></path>
</symbol>
<symbol id="icon-createmode_editedit" viewBox="0 0 24 24">
<title>createmode_editedit</title>
<path d="M20.719 7.031l-1.828 1.828-3.75-3.75 1.828-1.828q0.281-0.281 0.703-0.281t0.703 0.281l2.344 2.344q0.281 0.281 0.281 0.703t-0.281 0.703zM3 17.25l11.063-11.063 3.75 3.75-11.063 11.063h-3.75v-3.75z"></path>
</symbol>
<symbol id="icon-cloud" viewBox="0 0 24 24">
<title>cloud</title>
<path d="M19.359 10.031q1.922 0.141 3.281 1.57t1.359 3.398q0 2.063-1.477 3.539t-3.539 1.477h-12.984q-2.484 0-4.242-1.758t-1.758-4.242q0-2.203 1.57-3.961t3.773-1.992q0.984-1.828 2.766-2.953t3.891-1.125q2.531 0 4.711 1.781t2.648 4.266z"></path>
</symbol>
<symbol id="icon-device_unknown" viewBox="0 0 24 24">
<title>device_unknown</title>
<path d="M11.109 15.516h1.781v1.781h-1.781v-1.781zM12 6.703q1.5 0 2.508 1.008t1.008 2.461q0 1.172-1.313 2.344t-1.313 2.109h-1.781q0-0.984 0.398-1.664t0.914-0.984 0.914-0.773 0.398-1.031q0-0.703-0.516-1.219t-1.219-0.516-1.219 0.516-0.516 1.219h-1.781q0-1.453 1.008-2.461t2.508-1.008zM17.016 18.984v-13.969h-10.031v13.969h10.031zM17.016 0.984q0.797 0 1.383 0.609t0.586 1.406v18q0 0.797-0.586 1.406t-1.383 0.609h-10.031q-0.797 0-1.383-0.609t-0.586-1.406v-18q0-0.797 0.586-1.406t1.383-0.609h10.031z"></path>
</symbol>
<symbol id="icon-local_cafefree_breakfast" viewBox="0 0 24 24">
<title>local_cafefree_breakfast</title>
<path d="M3.984 18.984h16.031v2.016h-16.031v-2.016zM20.016 8.016v-3h-2.016v3h2.016zM20.016 3q0.844 0 1.406 0.586t0.563 1.43v3q0 0.844-0.563 1.406t-1.406 0.563h-2.016v3q0 1.641-1.172 2.836t-2.813 1.195h-6q-1.641 0-2.836-1.195t-1.195-2.836v-9.984h16.031z"></path>
</symbol>
<symbol id="icon-sports_volleyball" viewBox="0 0 24 24">
<title>sports_volleyball</title>
<path d="M21.938 10.828l-8.953-5.156v-3.609q3.469 0.375 6 2.836t2.953 5.93zM8.063 21.188l8.953-5.156 3.094 1.828q-3 4.125-8.109 4.125-2.063 0-3.938-0.797zM12.984 7.969l8.953 5.156q-0.188 1.547-0.844 2.953l-8.109-4.641v-3.469zM12 13.172l3 1.734-8.953 5.109q-1.172-0.844-2.156-2.203zM11.016 11.438l-3 1.734v-10.313q1.453-0.656 3-0.797v9.375zM6 4.031v10.266l-3.094 1.828q-0.891-2.016-0.891-4.125 0-4.969 3.984-7.969z"></path>
</symbol>
<symbol id="icon-th-menu" viewBox="0 0 24 24">
<title>th-menu</title>
<path d="M19 17h-14c-1.103 0-2 0.897-2 2s0.897 2 2 2h14c1.103 0 2-0.897 2-2s-0.897-2-2-2z"></path>
<path d="M19 10h-14c-1.103 0-2 0.897-2 2s0.897 2 2 2h14c1.103 0 2-0.897 2-2s-0.897-2-2-2z"></path>
<path d="M19 3h-14c-1.103 0-2 0.897-2 2s0.897 2 2 2h14c1.103 0 2-0.897 2-2s-0.897-2-2-2z"></path>
</symbol>
<symbol id="icon-social-facebook" viewBox="0 0 24 24">
<title>social-facebook</title>
<path d="M13 10h3v3h-3v7h-3v-7h-3v-3h3v-1.255c0-1.189 0.374-2.691 1.118-3.512 0.744-0.823 1.673-1.233 2.786-1.233h2.096v3h-2.1c-0.498 0-0.9 0.402-0.9 0.899v2.101z"></path>
</symbol>
<symbol id="icon-th-menu-outline" viewBox="0 0 24 24">
<title>th-menu-outline</title>
<path d="M19 18c0.55 0 1 0.45 1 1s-0.45 1-1 1h-14c-0.55 0-1-0.45-1-1s0.45-1 1-1h14M19 16h-14c-1.654 0-3 1.346-3 3s1.346 3 3 3h14c1.654 0 3-1.346 3-3s-1.346-3-3-3z"></path>
<path d="M19 11c0.55 0 1 0.45 1 1s-0.45 1-1 1h-14c-0.55 0-1-0.45-1-1s0.45-1 1-1h14M19 9h-14c-1.654 0-3 1.346-3 3s1.346 3 3 3h14c1.654 0 3-1.346 3-3s-1.346-3-3-3z"></path>
<path d="M19 4c0.55 0 1 0.45 1 1s-0.45 1-1 1h-14c-0.55 0-1-0.45-1-1s0.45-1 1-1h14M19 2h-14c-1.654 0-3 1.346-3 3s1.346 3 3 3h14c1.654 0 3-1.346 3-3s-1.346-3-3-3z"></path>
</symbol>
<symbol id="icon-ipod" viewBox="0 0 32 32">
<title>ipod</title>
<path d="M22 4h-12c-1.105 0-2 0.896-2 2v20c0 1.104 0.895 2 2 2h12c1.104 0 2-0.896 2-2v-20c0-1.104-0.896-2-2-2zM16 26c-1.934 0-3.5-1.567-3.5-3.5 0-1.934 1.566-3.5 3.5-3.5s3.5 1.566 3.5 3.5c0 1.933-1.567 3.5-3.5 3.5zM22 17h-12l0.021-11h11.979v11zM16 20.5c-1.104 0-2 0.896-2 2s0.896 2 2 2 2-0.896 2-2-0.896-2-2-2z"></path>
</symbol>
<symbol id="icon-umbrella" viewBox="0 0 32 32">
<title>umbrella</title>
<path d="M26.84 16.824c0 0-1.119-1.833-2.363-1.833-1.242 0-2.547 1.895-2.547 1.895s-1.367-1.893-2.486-1.893c-0.947 0-2.062 1.302-2.385 1.704v7.24c0 0.725-0.074 1.338-0.223 1.844-0.148 0.504-0.368 0.914-0.659 1.23-0.29 0.316-0.652 0.547-1.086 0.689-0.433 0.143-0.935 0.213-1.505 0.213-0.519 0-0.983-0.078-1.394-0.234-0.411-0.158-0.757-0.381-1.039-0.672s-0.499-0.641-0.65-1.053c-0.15-0.41-0.227-0.869-0.227-1.375v-0.699h1.98c0 0.656-0.005 1.516 0.234 1.85 0.239 0.332 0.604 0.5 1.095 0.5 0.331 0 0.804-0.164 0.804-0.164s0.362-0.26 0.471-0.457c0.108-0.195 0.218-0.709 0.218-0.709s0.056-0.58 0.056-0.912v-7.406c-0.443-0.501-1.53-1.622-2.401-1.622-1.118 0-2.672 1.864-2.672 1.864s-1.491-1.864-2.486-1.864c-0.994 0-2.423 1.864-2.423 1.864s-0.436-9.756 9.445-10.75l1.43-1.988 1.368 1.988c10.189 0.621 9.445 10.75 9.445 10.75z"></path>
</symbol>
</defs>
</svg>
